<svg width="600" height="600" viewBox="0 0 600 600" fill="none" xmlns="http://www.w3.org/2000/svg">
<g clip-path="url(#clip0_13_2)">
<rect width="600" height="600" fill="#032D3C"/>
<rect x="63.5" y="63.5" width="473" height="473" rx="236.5" stroke="#CFFFFE" stroke-width="27"/>
<path d="M137.412 368.276C140.977 361.147 145.492 352.355 150.957 341.899C156.66 331.206 162.482 320.513 168.423 309.819C174.601 299.126 180.542 289.027 186.245 279.521C192.186 270.016 197.176 262.769 201.216 257.778C208.107 249.461 215.236 243.521 222.603 239.956C229.969 236.392 236.742 234.609 242.92 234.609C249.098 234.609 254.326 235.916 258.604 238.53C263.118 241.144 266.802 244.709 269.653 249.224C272.505 253.501 274.644 258.61 276.069 264.551C277.495 270.254 278.208 276.432 278.208 283.086C278.208 286.888 277.97 291.878 277.495 298.057C277.257 304.235 276.901 310.889 276.426 318.018C276.188 325.146 275.832 332.513 275.356 340.117C275.119 347.721 274.881 354.85 274.644 361.504C278.208 354.375 282.248 346.533 286.763 337.979C291.278 329.186 295.793 320.513 300.308 311.958C305.06 303.403 309.575 295.443 313.853 288.076C318.13 280.472 322.051 274.294 325.615 269.541C335.833 255.521 345.339 246.134 354.131 241.382C363.161 236.629 371.121 234.253 378.013 234.253C386.092 234.253 392.746 235.798 397.974 238.887C403.201 241.738 407.241 245.54 410.093 250.293C413.182 254.808 415.321 259.917 416.509 265.62C417.697 271.323 418.291 276.789 418.291 282.017C418.291 290.096 417.697 298.532 416.509 307.324C415.321 316.117 414.727 326.572 414.727 338.691C414.727 343.682 414.964 348.672 415.439 353.662C415.915 358.652 416.865 363.049 418.291 366.851C419.954 370.653 422.45 373.742 425.776 376.118C429.103 378.494 433.618 379.683 439.321 379.683C445.5 379.683 451.559 378.138 457.5 375.049C463.441 371.722 469.144 367.445 474.609 362.217C480.075 356.989 485.184 351.048 489.937 344.395C494.927 337.741 499.442 331.087 503.481 324.434C507.521 317.78 511.086 311.483 514.175 305.542C517.264 299.364 519.759 294.136 521.66 289.858C522.848 287.244 524.512 285.225 526.65 283.799C528.789 282.373 531.165 281.66 533.779 281.66C537.819 281.66 541.027 283.205 543.403 286.294C546.017 289.146 547.324 292.235 547.324 295.562C547.324 297.225 546.968 298.888 546.255 300.552C545.304 302.453 543.403 306.493 540.552 312.671C537.7 318.612 533.898 325.503 529.146 333.345C524.393 340.949 518.809 349.028 512.393 357.583C506.214 366.138 499.323 374.098 491.719 381.465C484.115 388.594 475.916 394.535 467.124 399.287C458.332 403.802 449.064 406.06 439.321 406.06C428.866 406.06 420.311 404.159 413.657 400.356C407.241 396.792 402.013 391.921 397.974 385.742C394.172 379.564 391.558 372.435 390.132 364.355C388.706 356.276 387.993 347.84 387.993 339.048C387.993 327.404 388.587 316.711 389.775 306.968C390.964 296.987 391.558 289.264 391.558 283.799C391.558 277.858 390.964 273.343 389.775 270.254C388.825 267.165 387.518 265.026 385.854 263.838C384.429 262.412 383.003 261.699 381.577 261.699C380.151 261.462 379.082 261.343 378.369 261.343C372.666 261.343 366.606 264.551 360.19 270.967C354.012 277.145 347.596 285.462 340.942 295.918C334.289 306.374 327.397 318.255 320.269 331.562C313.377 344.87 306.367 358.415 299.238 372.197C295.199 379.801 291.753 386.099 288.901 391.089C286.287 396.079 283.674 400 281.06 402.852C278.683 405.703 276.307 407.723 273.931 408.911C271.554 410.099 268.94 410.693 266.089 410.693C259.91 410.693 255.158 408.555 251.831 404.277C248.742 400 247.197 394.416 247.197 387.524C247.197 383.96 247.316 379.207 247.554 373.267C247.791 367.326 248.029 360.791 248.267 353.662C248.504 346.533 248.861 339.167 249.336 331.562C249.811 323.958 250.168 316.711 250.405 309.819C250.643 302.69 250.881 296.393 251.118 290.928C251.356 285.462 251.475 281.304 251.475 278.452C251.475 272.274 250.405 267.878 248.267 265.264C246.128 262.412 243.633 260.986 240.781 260.986C238.167 260.986 235.197 261.937 231.87 263.838C228.781 265.739 225.098 269.422 220.82 274.888C217.493 279.165 213.216 285.462 207.988 293.779C202.998 301.859 197.651 310.889 191.948 320.869C186.245 330.85 180.542 341.068 174.839 351.523C169.373 361.979 164.621 371.366 160.581 379.683C155.591 389.663 150.601 396.436 145.61 400C140.62 403.802 135.749 405.703 130.996 405.703C124.105 405.703 118.996 403.683 115.669 399.644C112.342 395.366 110.679 389.782 110.679 382.891C110.679 382.178 110.798 377.9 111.035 370.059C111.51 362.217 111.986 352.712 112.461 341.543C112.936 330.137 113.411 318.018 113.887 305.186C114.6 292.354 115.194 280.353 115.669 269.185C115.907 263.244 115.669 257.778 114.956 252.788C114.243 247.798 113.293 244.827 112.104 243.877C110.203 244.352 106.401 248.748 100.698 257.065C95.2327 265.382 88.2227 279.878 79.668 300.552C78.4798 303.166 76.6976 305.186 74.3213 306.611C71.945 308.037 69.4499 308.75 66.8359 308.75C62.7962 308.75 59.5882 307.443 57.2119 304.829C54.8356 301.978 53.6475 298.77 53.6475 295.205C53.6475 293.542 54.0039 291.759 54.7168 289.858C65.4102 264.432 75.6283 245.778 85.3711 233.896C95.1139 221.777 104.619 215.718 113.887 215.718C119.352 215.718 123.867 217.025 127.432 219.639C131.234 222.015 134.204 225.223 136.343 229.263C138.481 233.065 140.026 237.461 140.977 242.451C141.927 247.441 142.402 252.313 142.402 257.065C142.402 278.215 141.808 297.581 140.62 315.166C139.67 332.751 138.6 350.454 137.412 368.276Z" fill="#CFFFFE"/>
<path d="M516 302C522.4 289.2 521 268.667 519.5 260L533 284.5C524.667 295.667 509.6 314.8 516 302Z" fill="#CFFFFE"/>
<path d="M82 347.5C75.6 314.3 85.1667 284.833 90.5 275.5L66 309.5C74 336 88.4 380.7 82 347.5Z" fill="#CFFFFE"/>
</g>
<defs>
<clipPath id="clip0_13_2">
<rect width="600" height="600" fill="white"/>
</clipPath>
</defs>
</svg>
