<svg width="510" height="577" viewBox="0 0 510 577" fill="none" xmlns="http://www.w3.org/2000/svg">
<rect x="10" y="77" width="500" height="500" fill="white"/>
<path d="M145.396 336.881C148.105 331.461 151.538 324.777 155.693 316.828C160.029 308.698 164.456 300.568 168.972 292.438C173.669 284.308 178.186 276.63 182.522 269.403C187.039 262.177 190.833 256.667 193.904 252.873C199.143 246.549 204.563 242.033 210.164 239.323C215.764 236.613 220.913 235.258 225.61 235.258C230.308 235.258 234.282 236.251 237.534 238.239C240.967 240.226 243.767 242.936 245.935 246.369C248.103 249.621 249.729 253.505 250.813 258.021C251.897 262.357 252.439 267.055 252.439 272.113C252.439 275.004 252.258 278.798 251.897 283.495C251.716 288.192 251.445 293.251 251.084 298.671C250.903 304.091 250.632 309.691 250.271 315.473C250.09 321.254 249.91 326.674 249.729 331.732C252.439 326.312 255.51 320.351 258.943 313.847C262.375 307.162 265.808 300.568 269.241 294.064C272.854 287.56 276.287 281.508 279.539 275.907C282.791 270.126 285.771 265.429 288.481 261.815C296.25 251.156 303.477 244.02 310.161 240.407C317.026 236.793 323.079 234.987 328.318 234.987C334.46 234.987 339.519 236.161 343.494 238.51C347.468 240.678 350.54 243.568 352.708 247.182C355.056 250.614 356.682 254.499 357.585 258.834C358.489 263.17 358.94 267.326 358.94 271.3C358.94 277.443 358.489 283.856 357.585 290.541C356.682 297.226 356.23 305.175 356.23 314.389C356.23 318.183 356.411 321.977 356.772 325.771C357.134 329.564 357.856 332.907 358.94 335.797C360.205 338.688 362.102 341.037 364.631 342.843C367.161 344.65 370.593 345.553 374.929 345.553C379.626 345.553 384.233 344.379 388.75 342.03C393.267 339.501 397.603 336.249 401.758 332.274C405.913 328.3 409.797 323.783 413.411 318.725C417.205 313.666 420.637 308.607 423.708 303.549C426.78 298.49 429.49 293.703 431.838 289.186C434.187 284.489 436.084 280.514 437.529 277.262C438.433 275.275 439.697 273.739 441.323 272.655C442.949 271.571 444.756 271.029 446.743 271.029C449.814 271.029 452.253 272.204 454.06 274.552C456.047 276.72 457.041 279.069 457.041 281.598C457.041 282.863 456.77 284.127 456.228 285.392C455.505 286.837 454.06 289.909 451.892 294.606C449.724 299.123 446.833 304.362 443.22 310.324C439.607 316.105 435.361 322.248 430.483 328.751C425.786 335.255 420.547 341.308 414.766 346.908C408.984 352.328 402.751 356.845 396.067 360.458C389.382 363.891 382.336 365.607 374.929 365.607C366.98 365.607 360.476 364.162 355.417 361.271C350.54 358.561 346.565 354.857 343.494 350.16C340.603 345.463 338.616 340.043 337.532 333.9C336.448 327.758 335.906 321.344 335.906 314.66C335.906 305.807 336.357 297.677 337.261 290.27C338.164 282.682 338.616 276.811 338.616 272.655C338.616 268.139 338.164 264.706 337.261 262.357C336.538 260.009 335.544 258.383 334.28 257.479C333.196 256.396 332.112 255.854 331.028 255.854C329.944 255.673 329.131 255.583 328.589 255.583C324.253 255.583 319.646 258.021 314.768 262.899C310.071 267.597 305.193 273.92 300.134 281.869C295.076 289.818 289.836 298.852 284.417 308.969C279.177 319.086 273.848 329.384 268.428 339.862C265.356 345.644 262.737 350.431 260.569 354.225C258.582 358.019 256.594 361 254.607 363.168C252.8 365.336 250.994 366.872 249.187 367.775C247.38 368.678 245.393 369.13 243.225 369.13C238.528 369.13 234.915 367.504 232.385 364.252C230.037 361 228.862 356.754 228.862 351.515C228.862 348.805 228.953 345.192 229.133 340.675C229.314 336.159 229.495 331.19 229.675 325.771C229.856 320.351 230.127 314.75 230.488 308.969C230.85 303.188 231.121 297.677 231.301 292.438C231.482 287.018 231.663 282.23 231.843 278.075C232.024 273.92 232.114 270.758 232.114 268.59C232.114 263.893 231.301 260.551 229.675 258.563C228.049 256.396 226.152 255.312 223.984 255.312C221.997 255.312 219.739 256.034 217.209 257.479C214.861 258.925 212.061 261.725 208.809 265.88C206.279 269.132 203.027 273.92 199.053 280.243C195.259 286.386 191.194 293.251 186.858 300.839C182.522 308.427 178.186 316.195 173.85 324.145C169.695 332.094 166.082 339.23 163.01 345.553C159.216 353.141 155.422 358.29 151.628 361C147.834 363.891 144.131 365.336 140.518 365.336C135.278 365.336 131.394 363.8 128.865 360.729C126.335 357.477 125.071 353.231 125.071 347.992C125.071 347.45 125.161 344.198 125.342 338.236C125.703 332.274 126.064 325.048 126.426 316.557C126.787 307.885 127.148 298.671 127.51 288.915C128.052 279.159 128.503 270.036 128.865 261.544C129.045 257.028 128.865 252.873 128.323 249.079C127.781 245.285 127.058 243.026 126.155 242.304C124.709 242.665 121.819 246.007 117.483 252.331C113.328 258.654 107.998 269.674 101.494 285.392C100.591 287.379 99.2358 288.915 97.4292 289.999C95.6226 291.083 93.7256 291.625 91.7383 291.625C88.667 291.625 86.228 290.631 84.4214 288.644C82.6147 286.476 81.7114 284.037 81.7114 281.327C81.7114 280.062 81.9824 278.708 82.5244 277.262C90.6543 257.931 98.4229 243.749 105.83 234.716C113.237 225.502 120.464 220.895 127.51 220.895C131.665 220.895 135.098 221.889 137.808 223.876C140.698 225.683 142.957 228.122 144.583 231.193C146.208 234.083 147.383 237.426 148.105 241.22C148.828 245.014 149.189 248.717 149.189 252.331C149.189 268.41 148.738 283.134 147.834 296.503C147.112 309.872 146.299 323.332 145.396 336.881Z" fill="#BBBBBB"/>
<path d="M121.403 354.9L147.053 312H175.553V417H147.053V364.35L124.853 401.4H117.953L95.7529 364.35V417H67.2529V312H95.7529L121.403 354.9ZM189.022 364.95C189.022 355.15 191.422 346.1 196.222 337.8C201.122 329.5 207.722 322.95 216.022 318.15C224.322 313.25 233.372 310.8 243.172 310.8C253.272 310.8 262.572 313.4 271.072 318.6C279.572 323.8 286.172 330.7 290.872 339.3L265.822 352.8C263.622 348.7 260.472 345.45 256.372 343.05C252.372 340.55 247.972 339.3 243.172 339.3C238.572 339.3 234.272 340.45 230.272 342.75C226.372 345.05 223.272 348.2 220.972 352.2C218.672 356.1 217.522 360.35 217.522 364.95C217.522 369.55 218.672 373.85 220.972 377.85C223.272 381.75 226.372 384.85 230.272 387.15C234.272 389.45 238.572 390.6 243.172 390.6C248.072 390.6 252.572 389.35 256.672 386.85C260.772 384.25 263.872 380.8 265.972 376.5L291.172 390.15C286.572 398.95 279.972 406 271.372 411.3C262.772 416.5 253.372 419.1 243.172 419.1C233.372 419.1 224.322 416.7 216.022 411.9C207.722 407 201.122 400.4 196.222 392.1C191.422 383.8 189.022 374.75 189.022 364.95ZM346.422 312H374.922V381.75C374.922 388.55 373.272 394.8 369.972 400.5C366.672 406.2 361.972 410.75 355.872 414.15C349.872 417.45 342.922 419.1 335.022 419.1C326.722 419.1 319.572 417.4 313.572 414C307.672 410.5 302.972 405.4 299.472 398.7L322.872 385.5C324.572 388.5 326.372 390.65 328.272 391.95C330.172 393.15 332.822 393.75 336.222 393.75C339.922 393.75 342.522 392.8 344.022 390.9C345.622 389 346.422 385.95 346.422 381.75V312ZM420.655 376.8V390H460.255V417H392.155V312H459.505V339H420.655V349.8H455.755V376.8H420.655Z" fill="#2E3192"/>
</svg>
