<svg width="500" height="500" viewBox="0 0 500 500" fill="none" xmlns="http://www.w3.org/2000/svg">
<g clip-path="url(#clip0_13_17)">
<rect width="500" height="500" rx="250" fill="#CFFFFE"/>
<rect x="13.5" y="13.5" width="473" height="473" rx="236.5" stroke="#032D3C" stroke-width="27"/>
<path d="M87.4121 318.276C90.9766 311.147 95.4915 302.355 100.957 291.899C106.66 281.206 112.482 270.513 118.423 259.819C124.601 249.126 130.542 239.027 136.245 229.521C142.186 220.016 147.176 212.769 151.216 207.778C158.107 199.461 165.236 193.521 172.603 189.956C179.969 186.392 186.742 184.609 192.92 184.609C199.098 184.609 204.326 185.916 208.604 188.53C213.118 191.144 216.802 194.709 219.653 199.224C222.505 203.501 224.644 208.61 226.069 214.551C227.495 220.254 228.208 226.432 228.208 233.086C228.208 236.888 227.97 241.878 227.495 248.057C227.257 254.235 226.901 260.889 226.426 268.018C226.188 275.146 225.832 282.513 225.356 290.117C225.119 297.721 224.881 304.85 224.644 311.504C228.208 304.375 232.248 296.533 236.763 287.979C241.278 279.186 245.793 270.513 250.308 261.958C255.06 253.403 259.575 245.443 263.853 238.076C268.13 230.472 272.051 224.294 275.615 219.541C285.833 205.521 295.339 196.134 304.131 191.382C313.161 186.629 321.121 184.253 328.013 184.253C336.092 184.253 342.746 185.798 347.974 188.887C353.201 191.738 357.241 195.54 360.093 200.293C363.182 204.808 365.321 209.917 366.509 215.62C367.697 221.323 368.291 226.789 368.291 232.017C368.291 240.096 367.697 248.532 366.509 257.324C365.321 266.117 364.727 276.572 364.727 288.691C364.727 293.682 364.964 298.672 365.439 303.662C365.915 308.652 366.865 313.049 368.291 316.851C369.954 320.653 372.45 323.742 375.776 326.118C379.103 328.494 383.618 329.683 389.321 329.683C395.5 329.683 401.559 328.138 407.5 325.049C413.441 321.722 419.144 317.445 424.609 312.217C430.075 306.989 435.184 301.048 439.937 294.395C444.927 287.741 449.442 281.087 453.481 274.434C457.521 267.78 461.086 261.483 464.175 255.542C467.264 249.364 469.759 244.136 471.66 239.858C472.848 237.244 474.512 235.225 476.65 233.799C478.789 232.373 481.165 231.66 483.779 231.66C487.819 231.66 491.027 233.205 493.403 236.294C496.017 239.146 497.324 242.235 497.324 245.562C497.324 247.225 496.968 248.888 496.255 250.552C495.304 252.453 493.403 256.493 490.552 262.671C487.7 268.612 483.898 275.503 479.146 283.345C474.393 290.949 468.809 299.028 462.393 307.583C456.214 316.138 449.323 324.098 441.719 331.465C434.115 338.594 425.916 344.535 417.124 349.287C408.332 353.802 399.064 356.06 389.321 356.06C378.866 356.06 370.311 354.159 363.657 350.356C357.241 346.792 352.013 341.921 347.974 335.742C344.172 329.564 341.558 322.435 340.132 314.355C338.706 306.276 337.993 297.84 337.993 289.048C337.993 277.404 338.587 266.711 339.775 256.968C340.964 246.987 341.558 239.264 341.558 233.799C341.558 227.858 340.964 223.343 339.775 220.254C338.825 217.165 337.518 215.026 335.854 213.838C334.429 212.412 333.003 211.699 331.577 211.699C330.151 211.462 329.082 211.343 328.369 211.343C322.666 211.343 316.606 214.551 310.19 220.967C304.012 227.145 297.596 235.462 290.942 245.918C284.289 256.374 277.397 268.255 270.269 281.562C263.377 294.87 256.367 308.415 249.238 322.197C245.199 329.801 241.753 336.099 238.901 341.089C236.287 346.079 233.674 350 231.06 352.852C228.683 355.703 226.307 357.723 223.931 358.911C221.554 360.099 218.94 360.693 216.089 360.693C209.91 360.693 205.158 358.555 201.831 354.277C198.742 350 197.197 344.416 197.197 337.524C197.197 333.96 197.316 329.207 197.554 323.267C197.791 317.326 198.029 310.791 198.267 303.662C198.504 296.533 198.861 289.167 199.336 281.562C199.811 273.958 200.168 266.711 200.405 259.819C200.643 252.69 200.881 246.393 201.118 240.928C201.356 235.462 201.475 231.304 201.475 228.452C201.475 222.274 200.405 217.878 198.267 215.264C196.128 212.412 193.633 210.986 190.781 210.986C188.167 210.986 185.197 211.937 181.87 213.838C178.781 215.739 175.098 219.422 170.82 224.888C167.493 229.165 163.216 235.462 157.988 243.779C152.998 251.859 147.651 260.889 141.948 270.869C136.245 280.85 130.542 291.068 124.839 301.523C119.373 311.979 114.621 321.366 110.581 329.683C105.591 339.663 100.601 346.436 95.6104 350C90.6201 353.802 85.7487 355.703 80.9961 355.703C74.1048 355.703 68.9958 353.683 65.6689 349.644C62.3421 345.366 60.6787 339.782 60.6787 332.891C60.6787 332.178 60.7975 327.9 61.0352 320.059C61.5104 312.217 61.9857 302.712 62.4609 291.543C62.9362 280.137 63.4115 268.018 63.8867 255.186C64.5996 242.354 65.1937 230.353 65.6689 219.185C65.9066 213.244 65.6689 207.778 64.9561 202.788C64.2432 197.798 63.2926 194.827 62.1045 193.877C60.2035 194.352 56.4014 198.748 50.6982 207.065C45.2327 215.382 38.2227 229.878 29.668 250.552C28.4798 253.166 26.6976 255.186 24.3213 256.611C21.945 258.037 19.4499 258.75 16.8359 258.75C12.7962 258.75 9.58822 257.443 7.21191 254.829C4.83561 251.978 3.64746 248.77 3.64746 245.205C3.64746 243.542 4.00391 241.759 4.7168 239.858C15.4102 214.432 25.6283 195.778 35.3711 183.896C45.1139 171.777 54.6191 165.718 63.8867 165.718C69.3522 165.718 73.8672 167.025 77.4316 169.639C81.2337 172.015 84.2041 175.223 86.3428 179.263C88.4814 183.065 90.026 187.461 90.9766 192.451C91.9271 197.441 92.4023 202.313 92.4023 207.065C92.4023 228.215 91.8083 247.581 90.6201 265.166C89.6696 282.751 88.6003 300.454 87.4121 318.276Z" fill="#032D3C"/>
<path d="M466 252C472.4 239.2 471 218.667 469.5 210L483 234.5C474.667 245.667 459.6 264.8 466 252Z" fill="#032D3C"/>
<path d="M32 297.5C25.6 264.3 35.1667 234.833 40.5 225.5L16 259.5C24 286 38.4 330.7 32 297.5Z" fill="#032D3C"/>
</g>
<defs>
<clipPath id="clip0_13_17">
<rect width="500" height="500" rx="250" fill="white"/>
</clipPath>
</defs>
</svg>
