<svg width="600" height="600" viewBox="0 0 600 600" fill="none" xmlns="http://www.w3.org/2000/svg">
<path d="M195.396 386.881C198.105 381.461 201.538 374.777 205.693 366.828C210.029 358.698 214.456 350.568 218.972 342.438C223.669 334.308 228.186 326.63 232.522 319.403C237.039 312.177 240.833 306.667 243.904 302.873C249.143 296.549 254.563 292.033 260.164 289.323C265.764 286.613 270.913 285.258 275.61 285.258C280.308 285.258 284.282 286.251 287.534 288.239C290.967 290.226 293.767 292.936 295.935 296.369C298.103 299.621 299.729 303.505 300.813 308.021C301.897 312.357 302.439 317.055 302.439 322.113C302.439 325.004 302.258 328.798 301.897 333.495C301.716 338.192 301.445 343.251 301.084 348.671C300.903 354.091 300.632 359.691 300.271 365.473C300.09 371.254 299.91 376.674 299.729 381.732C302.439 376.312 305.51 370.351 308.943 363.847C312.375 357.162 315.808 350.568 319.241 344.064C322.854 337.56 326.287 331.508 329.539 325.907C332.791 320.126 335.771 315.429 338.481 311.815C346.25 301.156 353.477 294.02 360.161 290.407C367.026 286.793 373.079 284.987 378.318 284.987C384.46 284.987 389.519 286.161 393.494 288.51C397.468 290.678 400.54 293.568 402.708 297.182C405.056 300.614 406.682 304.499 407.585 308.834C408.489 313.17 408.94 317.326 408.94 321.3C408.94 327.443 408.489 333.856 407.585 340.541C406.682 347.226 406.23 355.175 406.23 364.389C406.23 368.183 406.411 371.977 406.772 375.771C407.134 379.564 407.856 382.907 408.94 385.797C410.205 388.688 412.102 391.037 414.631 392.843C417.161 394.65 420.593 395.553 424.929 395.553C429.626 395.553 434.233 394.379 438.75 392.03C443.267 389.501 447.603 386.249 451.758 382.274C455.913 378.3 459.797 373.783 463.411 368.725C467.205 363.666 470.637 358.607 473.708 353.549C476.78 348.49 479.49 343.703 481.838 339.186C484.187 334.489 486.084 330.514 487.529 327.262C488.433 325.275 489.697 323.739 491.323 322.655C492.949 321.571 494.756 321.029 496.743 321.029C499.814 321.029 502.253 322.204 504.06 324.552C506.047 326.72 507.041 329.069 507.041 331.598C507.041 332.863 506.77 334.127 506.228 335.392C505.505 336.837 504.06 339.909 501.892 344.606C499.724 349.123 496.833 354.362 493.22 360.324C489.607 366.105 485.361 372.248 480.483 378.751C475.786 385.255 470.547 391.308 464.766 396.908C458.984 402.328 452.751 406.845 446.067 410.458C439.382 413.891 432.336 415.607 424.929 415.607C416.98 415.607 410.476 414.162 405.417 411.271C400.54 408.561 396.565 404.857 393.494 400.16C390.603 395.463 388.616 390.043 387.532 383.9C386.448 377.758 385.906 371.344 385.906 364.66C385.906 355.807 386.357 347.677 387.261 340.27C388.164 332.682 388.616 326.811 388.616 322.655C388.616 318.139 388.164 314.706 387.261 312.357C386.538 310.009 385.544 308.383 384.28 307.479C383.196 306.396 382.112 305.854 381.028 305.854C379.944 305.673 379.131 305.583 378.589 305.583C374.253 305.583 369.646 308.021 364.768 312.899C360.071 317.597 355.193 323.92 350.134 331.869C345.076 339.818 339.836 348.852 334.417 358.969C329.177 369.086 323.848 379.384 318.428 389.862C315.356 395.644 312.737 400.431 310.569 404.225C308.582 408.019 306.594 411 304.607 413.168C302.8 415.336 300.994 416.872 299.187 417.775C297.38 418.678 295.393 419.13 293.225 419.13C288.528 419.13 284.915 417.504 282.385 414.252C280.037 411 278.862 406.754 278.862 401.515C278.862 398.805 278.953 395.192 279.133 390.675C279.314 386.159 279.495 381.19 279.675 375.771C279.856 370.351 280.127 364.75 280.488 358.969C280.85 353.188 281.121 347.677 281.301 342.438C281.482 337.018 281.663 332.23 281.843 328.075C282.024 323.92 282.114 320.758 282.114 318.59C282.114 313.893 281.301 310.551 279.675 308.563C278.049 306.396 276.152 305.312 273.984 305.312C271.997 305.312 269.739 306.034 267.209 307.479C264.861 308.925 262.061 311.725 258.809 315.88C256.279 319.132 253.027 323.92 249.053 330.243C245.259 336.386 241.194 343.251 236.858 350.839C232.522 358.427 228.186 366.195 223.85 374.145C219.695 382.094 216.082 389.23 213.01 395.553C209.216 403.141 205.422 408.29 201.628 411C197.834 413.891 194.131 415.336 190.518 415.336C185.278 415.336 181.394 413.8 178.865 410.729C176.335 407.477 175.071 403.231 175.071 397.992C175.071 397.45 175.161 394.198 175.342 388.236C175.703 382.274 176.064 375.048 176.426 366.557C176.787 357.885 177.148 348.671 177.51 338.915C178.052 329.159 178.503 320.036 178.865 311.544C179.045 307.028 178.865 302.873 178.323 299.079C177.781 295.285 177.058 293.026 176.155 292.304C174.709 292.665 171.819 296.007 167.483 302.331C163.328 308.654 157.998 319.674 151.494 335.392C150.591 337.379 149.236 338.915 147.429 339.999C145.623 341.083 143.726 341.625 141.738 341.625C138.667 341.625 136.228 340.631 134.421 338.644C132.615 336.476 131.711 334.037 131.711 331.327C131.711 330.062 131.982 328.708 132.524 327.262C140.654 307.931 148.423 293.749 155.83 284.716C163.237 275.502 170.464 270.895 177.51 270.895C181.665 270.895 185.098 271.889 187.808 273.876C190.698 275.683 192.957 278.122 194.583 281.193C196.208 284.083 197.383 287.426 198.105 291.22C198.828 295.014 199.189 298.717 199.189 302.331C199.189 318.41 198.738 333.134 197.834 346.503C197.112 359.872 196.299 373.332 195.396 386.881Z" fill="#BBBBBB"/>
<path d="M222.589 385C232.389 385 241.439 387.35 249.739 392.05C258.039 396.75 264.589 403.15 269.389 411.25C274.289 419.25 276.739 428.15 276.739 437.95C276.739 447.75 274.289 456.6 269.389 464.5C264.589 472.4 258.039 478.65 249.739 483.25C241.539 487.75 232.489 490 222.589 490H176.389V385H222.589ZM222.589 463C227.189 463 231.439 461.9 235.339 459.7C239.339 457.4 242.489 454.3 244.789 450.4C247.089 446.5 248.239 442.25 248.239 437.65C248.239 433.05 247.089 428.8 244.789 424.9C242.489 420.9 239.339 417.75 235.339 415.45C231.439 413.15 227.189 412 222.589 412H204.889V463H222.589ZM315.778 449.8V463H355.378V490H287.278V385H354.628V412H315.778V422.8H350.878V449.8H315.778ZM410.119 447.25L430.219 385H460.219L426.169 490H393.919L359.869 385H389.869L410.119 447.25Z" fill="#2E3192"/>
</svg>
